<svg id="Layer_1" data-name="Layer 1" xmlns="http://www.w3.org/2000/svg" viewBox="0 0 500 500"><defs><style>.cls-1{fill:#fff;}.cls-2{opacity:0.15;}.cls-3{fill:#020303;}.cls-4{fill:none;stroke:#000;stroke-linecap:round;stroke-linejoin:round;stroke-width:19.03px;}</style></defs><title>teeth</title><path class="cls-1" d="M311.43,19.59,268.9,40.72a42.13,42.13,0,0,1-37.8,0L188.57,19.59C147.88-.62,99.13,14.69,76,56.82,58,89.44,51.08,133,61.26,176.09l65.07,275.58c5.28,22.38,20.71,37.57,38.14,37.57,16.69,0,31.64-13.95,37.49-35l33.91-122.06c4.27-15.39,24-15.39,28.26,0L298,454.23c5.85,21.06,20.8,35,37.49,35,17.43,0,32.86-15.19,38.14-37.57l65.07-275.58C448.92,133,442,89.45,424,56.82,400.87,14.69,352.12-.62,311.43,19.59Z"/><g class="cls-2"><path class="cls-3" d="M250,314.29c-4.27-15.38-44.06-5.89-54.66,17.88L161.43,454.23c-3.28,11.83-9.5,21.29-17.22,27.42,6,4.78,12.93,7.59,20.26,7.59,16.69,0,31.64-13.95,37.49-35l27.78-100Z"/><path class="cls-3" d="M424,56.82C404,20.42,364.91,4.1,328.4,13.35,350.72,19,370.91,33.9,383.5,56.82c17.93,32.63,24.89,76.17,14.72,119.27L333.15,451.67c-3.06,13-9.59,23.4-17.88,30,6,4.79,12.94,7.59,20.26,7.59,17.43,0,32.86-15.19,38.14-37.57l65.07-275.58C448.92,133,442,89.45,424,56.82Z"/></g><path class="cls-4" d="M231.1,40.72S259,58.29,303.89,75.86"/><path class="cls-4" d="M311.43,19.59,268.9,40.72a42.13,42.13,0,0,1-37.8,0L188.57,19.59C147.88-.62,99.13,14.69,76,56.82,58,89.44,51.08,133,61.26,176.09l65.07,275.58c5.28,22.38,20.71,37.57,38.14,37.57,16.69,0,31.64-13.95,37.49-35l33.91-122.06c4.27-15.39,24-15.39,28.26,0L298,454.23c5.85,21.06,20.8,35,37.49,35,17.43,0,32.86-15.19,38.14-37.57l65.07-275.58C448.92,133,442,89.45,424,56.82,400.87,14.69,352.12-.62,311.43,19.59Z"/></svg>